<?xml version="1.0" encoding="iso-8859-1"?>
<!-- Uploaded to: SVG Repo, www.svgrepo.com, Generator: SVG Repo Mixer Tools -->
<svg fill="#000000" height="800px" width="800px" version="1.1" id="Layer_1" xmlns="http://www.w3.org/2000/svg" xmlns:xlink="http://www.w3.org/1999/xlink" 
	 viewBox="0 0 512 512" xml:space="preserve">
<g>
	<g>
		<path d="M407.873,376.72h0.001c8.138,2.803,16.768,4.277,25.627,4.277c20.967,0,40.681-8.166,55.507-22.992
			C503.834,343.18,512,323.467,512,302.499c0-20.969-8.166-40.681-22.992-55.507c-21.906-21.903-53.64-28.124-81.134-18.675v-27.654
			H31.293v195.539l72.839,72.841H0v35.006h139.139h160.889h139.139v-35.006H335.034l72.839-72.841V376.72z M407.874,267.357
			c17-12.412,41.041-10.95,56.381,4.387c8.215,8.215,12.739,19.137,12.739,30.754c0,11.617-4.524,22.539-12.739,30.753
			c-8.215,8.215-19.137,12.739-30.754,12.739c-9.342,0-18.231-2.931-25.627-8.348V267.357z M372.868,381.703l-87.34,87.34H153.639
			l-87.34-87.34V235.669h306.569V381.703z"/>
	</g>
</g>
<g>
	<g>
		<path d="M291.729,281.825c-20.076-20.074-50.74-23.26-74.179-9.559c-23.438-13.7-54.104-10.513-74.18,9.56
			c-11.56,11.56-17.927,26.93-17.927,43.279c0,16.348,6.366,31.718,17.927,43.278l74.18,74.179l74.179-74.179
			C315.593,344.519,315.593,305.689,291.729,281.825z M266.976,343.63l-49.426,49.426l-49.427-49.426
			c-10.215-10.216-10.215-26.838,0-37.05c5.107-5.107,11.817-7.661,18.526-7.661c6.708,0,13.418,2.554,18.525,7.661l12.376,12.375
			l12.376-12.375c10.215-10.216,26.836-10.215,37.05-0.001C277.191,316.793,277.191,333.414,266.976,343.63z"/>
	</g>
</g>
<g>
	<g>
		<path d="M125.31,7.95l-24.753,24.754c12.331,12.331,12.331,32.399,0,44.731c-25.982,25.982-25.982,68.254,0,94.235l24.753-24.754
			c-5.974-5.974-9.264-13.917-9.264-22.365c0-8.447,3.289-16.39,9.264-22.364C151.292,76.205,151.292,33.931,125.31,7.95z"/>
	</g>
</g>
<g>
	<g>
		<path d="M317.453,7.95L292.7,32.703c12.331,12.331,12.331,32.399,0,44.731c-25.982,25.982-25.982,68.254,0,94.235l24.753-24.753
			c-5.974-5.974-9.264-13.917-9.264-22.365c0-8.447,3.289-16.39,9.264-22.364C343.434,76.205,343.434,33.931,317.453,7.95z"/>
	</g>
</g>
<g>
	<g>
		<path d="M221.381,7.95l-24.753,24.753c12.331,12.331,12.331,32.399,0,44.731c-25.982,25.982-25.982,68.254,0,94.235l24.753-24.753
			c-5.974-5.974-9.264-13.917-9.264-22.365c0-8.447,3.289-16.39,9.264-22.364C247.362,76.205,247.362,33.931,221.381,7.95z"/>
	</g>
</g>
</svg>