<?xml version="1.0" encoding="utf-8"?><!-- Uploaded to: SVG Repo, www.svgrepo.com, Generator: SVG Repo Mixer Tools -->
<svg width="800px" height="800px" viewBox="0 0 400 400" fill="none" xmlns="http://www.w3.org/2000/svg">
<path d="M198.333 65C208.25 96.664 155.934 91.7632 144.882 116.227C129.969 149.248 194.949 148.17 212.215 146.28" stroke="#000000" stroke-opacity="0.9" stroke-width="16" stroke-linecap="round" stroke-linejoin="round"/>
<path d="M139.463 127.584C132.696 129.554 125.349 132.731 120.244 137.787C110.766 147.181 106.517 160.981 106.517 173.846C106.517 237.117 218.569 231.487 259.582 216.708C279.737 209.442 304.394 188.977 283.607 171.806" stroke="#000000" stroke-opacity="0.9" stroke-width="16" stroke-linecap="round" stroke-linejoin="round"/>
<path d="M199.698 66.3906C204.032 94.7315 260.442 89.3102 265.9 116.469C267.856 126.189 256.246 127.906 256.246 132.932C256.246 137.738 266.957 129.241 270.728 132.245C281.443 140.774 288.162 154.665 282.451 167.917" stroke="#000000" stroke-opacity="0.9" stroke-width="16" stroke-linecap="round" stroke-linejoin="round"/>
<path d="M100.896 199.905C86.7908 231.586 116.836 218.722 117.447 219.125C124.491 223.803 122.387 244.055 140.894 239.034C143.906 238.214 153.529 225.642 156.754 228.048C163.835 233.337 162.393 245.322 187.097 240.405C190.716 239.685 201.282 224.302 202.961 225.306C210.15 229.599 205.764 245.654 219.512 241.093C227.095 238.574 233.111 232.454 237.441 225.989C238.469 224.454 238.754 220.033 240.2 221.184C245.859 225.69 242.967 235.6 253.301 235.6C262.554 235.6 273.571 224.35 279.507 218.438C281.515 216.443 282.764 235.272 291.23 228.048C303.203 217.834 303.086 202.639 303.645 204.026C310.127 220.157 296.958 315.057 291.23 320.757C276.732 335.189 186.551 335.133 167.791 335.133C163.232 335.133 122.764 338.859 119.515 332.387C112.089 317.604 95.3294 224.039 94 208.144" stroke="#000000" stroke-opacity="0.9" stroke-width="16" stroke-linecap="round" stroke-linejoin="round"/>
<path d="M142.882 262.489C141.709 275.323 145.908 297.732 146.849 305.603" stroke="#000000" stroke-opacity="0.9" stroke-width="16" stroke-linecap="round" stroke-linejoin="round"/>
<path d="M177.52 261.099C177.418 276.333 177.179 291.377 178.837 305.603" stroke="#000000" stroke-opacity="0.9" stroke-width="16" stroke-linecap="round" stroke-linejoin="round"/>
<path d="M214.468 265.271C212.778 278.684 211.352 292.09 211.352 305.603" stroke="#000000" stroke-opacity="0.9" stroke-width="16" stroke-linecap="round" stroke-linejoin="round"/>
<path d="M246.985 262.489C244.984 273.993 244.007 285.683 242.812 297.259" stroke="#000000" stroke-opacity="0.9" stroke-width="16" stroke-linecap="round" stroke-linejoin="round"/>
<path d="M274.8 256.926C273.331 267.094 272.058 277.344 270.628 287.523" stroke="#000000" stroke-opacity="0.9" stroke-width="16" stroke-linecap="round" stroke-linejoin="round"/>
</svg>